<svg width="18" height="18" viewBox="0 0 42 41" fill="none" xmlns="http://www.w3.org/2000/svg">
    <path d="M40.1016 20.2094C40.1016 25.2702 39.2534 29.3754 38.2069 29.3754C37.1603 29.3754 36.3125 25.2713 36.3125 20.2094C36.3125 15.1475 37.1607 11.0435 38.2069 11.0435C39.2531 11.0435 40.1016 15.1471 40.1016 20.2094Z" fill="#FBFF3A"/>
    <path d="M35.2668 20.2092C35.2668 25.859 32.8548 30.4409 29.8795 30.4409C26.9042 30.4409 24.4922 25.859 24.4922 20.2092C24.4922 14.5594 26.9038 9.97754 29.8791 9.97754C32.8545 9.97754 35.2664 14.558 35.2664 20.2092" fill="#FBFF3A"/>
    <path d="M23.4473 20.2096C23.4473 26.2118 18.6233 31.0775 12.673 31.0775C6.72274 31.0775 1.89844 26.2107 1.89844 20.2096C1.89844 14.2085 6.72237 9.34131 12.673 9.34131C18.6237 9.34131 23.4473 14.2074 23.4473 20.2096Z" fill="#FBFF3A"/>
</svg>
